<?xml version="1.0" encoding="utf-8"?>
<!-- Generator: Adobe Illustrator 28.2.0, SVG Export Plug-In . SVG Version: 6.00 Build 0)  -->
<svg version="1.1" id="Warstwa_1" xmlns="http://www.w3.org/2000/svg" xmlns:xlink="http://www.w3.org/1999/xlink" x="0px" y="0px"
	 viewBox="0 0 24 24" style="enable-background:new 0 0 24 24;" xml:space="preserve">
<style type="text/css">
	.st0{fill:#FFFFFF;}
</style>
<path class="st0" d="M3,20v-2h2.8l-0.4-0.4C4.5,16.9,3.9,16,3.5,15s-0.5-2-0.5-3c0-1.9,0.6-3.5,1.7-4.9S7.2,4.7,9,4.2v2.1
	C7.8,6.8,6.8,7.5,6.1,8.6S5,10.8,5,12.1c0,0.8,0.1,1.5,0.4,2.2c0.3,0.7,0.7,1.4,1.3,2L7,16.5V14h2v6H3z M20.9,11h-2
	c-0.1-0.6-0.3-1.1-0.5-1.7c-0.3-0.5-0.6-1-1.1-1.5L17,7.5V10h-2V4h6v2h-2.8l0.4,0.4c0.7,0.7,1.2,1.4,1.6,2.2S20.8,10.2,20.9,11z
	 M17,23l-0.3-1.5c-0.2-0.1-0.4-0.2-0.6-0.3c-0.2-0.1-0.4-0.2-0.5-0.3l-1.4,0.5l-1-1.7l1.1-1c0-0.2-0.1-0.4-0.1-0.6s0-0.4,0.1-0.6
	l-1.1-1l1-1.7l1.4,0.4c0.2-0.1,0.4-0.2,0.5-0.3c0.2-0.1,0.4-0.2,0.6-0.3L17,13h2l0.3,1.5c0.2,0.1,0.4,0.2,0.6,0.3
	c0.2,0.1,0.4,0.2,0.5,0.4l1.5-0.5l1,1.8l-1.1,1c0,0.2,0,0.4,0,0.6s0,0.4,0,0.6l1.1,1l-1,1.7l-1.5-0.5c-0.2,0.1-0.4,0.2-0.5,0.3
	c-0.2,0.1-0.4,0.2-0.6,0.3L19,23H17z M18,20c0.6,0,1-0.2,1.4-0.6S20,18.5,20,18s-0.2-1-0.6-1.4S18.6,16,18,16c-0.5,0-1,0.2-1.4,0.6
	C16.2,17,16,17.5,16,18s0.2,1,0.6,1.4C17,19.8,17.5,20,18,20z"/>
</svg>
