<?xml version="1.0" encoding="utf-8"?>
<!-- Generator: Adobe Illustrator 28.2.0, SVG Export Plug-In . SVG Version: 6.00 Build 0)  -->
<svg version="1.1" id="Warstwa_1" xmlns="http://www.w3.org/2000/svg" xmlns:xlink="http://www.w3.org/1999/xlink" x="0px" y="0px"
	 viewBox="0 0 24 24" style="enable-background:new 0 0 24 24;" xml:space="preserve">
<style type="text/css">
	.st0{fill:#FFFFFF;}
</style>
<path class="st0" d="M11,17h2l0.3-1.5c0.2-0.1,0.4-0.2,0.6-0.3c0.2-0.1,0.4-0.2,0.5-0.3l1.4,0.4l1-1.7l-1.2-1c0-0.2,0.1-0.4,0.1-0.6
	s0-0.4-0.1-0.7l1.2-1l-1-1.7l-1.4,0.4C14.2,9,14,8.9,13.9,8.8s-0.4-0.2-0.6-0.3L13,7h-2l-0.3,1.5c-0.2,0.1-0.4,0.2-0.6,0.3
	C10,8.9,9.8,9,9.6,9.1L8.2,8.6l-1,1.7l1.2,1c0,0.2-0.1,0.5-0.1,0.7s0,0.4,0.1,0.6l-1.2,1l1,1.7l1.4-0.4c0.2,0.1,0.4,0.2,0.5,0.3
	c0.2,0.1,0.4,0.2,0.6,0.3L11,17z M12,14c-0.6,0-1-0.2-1.4-0.6S10,12.6,10,12s0.2-1,0.6-1.4S11.4,10,12,10s1,0.2,1.4,0.6
	S14,11.4,14,12s-0.2,1-0.6,1.4S12.6,14,12,14z M5,21c-0.5,0-1-0.2-1.4-0.6S3,19.5,3,19V5c0-0.5,0.2-1,0.6-1.4S4.5,3,5,3h14
	c0.6,0,1,0.2,1.4,0.6S21,4.4,21,5v14c0,0.5-0.2,1-0.6,1.4S19.6,21,19,21H5z M5,19h14V5H5V19z M5,5v14V5z"/>
</svg>
