<?xml version="1.0" encoding="utf-8"?>
<!-- Generator: Adobe Illustrator 28.2.0, SVG Export Plug-In . SVG Version: 6.00 Build 0)  -->
<svg version="1.1" id="Warstwa_1" xmlns="http://www.w3.org/2000/svg" xmlns:xlink="http://www.w3.org/1999/xlink" x="0px" y="0px"
	 viewBox="0 0 24 24" style="enable-background:new 0 0 24 24;" xml:space="preserve">
<style type="text/css">
	.st0{fill:#FFFFFF;}
</style>
<path class="st0" d="M7,19h2v-2H7V19z M7,15h2v-4H7V15z M11,19h2v-4h-2V19z M11,13h2v-2h-2V13z M15,19h2v-2h-2V19z M15,15h2v-4h-2
	V15z M6,22c-0.5,0-1-0.2-1.4-0.6S4,20.5,4,20V8l6-6h8c0.6,0,1,0.2,1.4,0.6S20,3.4,20,4v16c0,0.5-0.2,1-0.6,1.4S18.6,22,18,22H6z
	 M6,20h12V4h-7.1L6,8.8V20z M6,20h12H6z"/>
</svg>
